<svg id="Layer_1" data-name="Layer 1" xmlns="http://www.w3.org/2000/svg" viewBox="0 0 140.28 77.59"><defs><style>.cls-1{fill:#003263;}.cls-2{fill:#6e298d;}</style></defs><title>GIMR_CMYK</title><path class="cls-1" d="M45.87,79a2.93,2.93,0,0,1-3-2.84,2.89,2.89,0,0,1,3-2.81,2.86,2.86,0,0,1,3,2.73A3,3,0,0,1,45.87,79Zm-.08-5.42c-1.24,0-1.88,1.14-1.88,2.4,0,1.43.84,2.79,2,2.79s1.88-1.37,1.88-2.65C47.83,75.07,47.2,73.58,45.79,73.58Z" transform="translate(-0.42 -1.42)"/><path class="cls-1" d="M50.37,74.31c0-.36,0-.6-.44-.63-.19,0-.32,0-.32-.15s.12-.12.18-.12l.25,0,1.54,0h.11l1.61,0,.26,0c.14,0,.15,0,.15.16v.94s0,.17-.1.17-.16-.13-.18-.18c-.21-.49-.35-.78-1.65-.78-.3,0-.45,0-.45.43v1.17c0,.48,0,.49.14.5a5,5,0,0,0,.54,0c.72,0,.81-.2,1-.65,0-.07.05-.14.14-.14s.11.06.11.15,0,.72,0,.86,0,.23,0,.43l0,.42c0,.06,0,.17-.11.17a.15.15,0,0,1-.14-.14s-.08-.29-.1-.34c-.12-.48-.69-.48-.91-.48-.65,0-.65,0-.65.42V78c0,.35,0,.61.41.64s.38,0,.38.15S52,79,51.91,79c-.3,0-.77,0-1.07,0l-1.05,0c-.07,0-.19,0-.19-.13s.13-.13.32-.14c.44,0,.44-.26.44-.63Z" transform="translate(-0.42 -1.42)"/><path class="cls-1" d="M60.29,78.53c-.08.21-.12.29-.21.29s-.14-.07-.2-.22l-1.75-4.25h0c-.06,1-.12,2-.12,2.9,0,1.39.08,1.43.52,1.44.2,0,.35,0,.35.13s-.16.13-.26.13-.42,0-.8,0-.65,0-.8,0-.15,0-.15-.11.09-.13.34-.16.42-.1.44-.72c0-.06.19-2.67.19-3.84,0-.43,0-.43-.42-.44s-.35-.06-.35-.16.06-.11.19-.11.58,0,.82,0,.5,0,.61,0,.16,0,.25.21l1.49,3.69,1.4-3.59c.12-.29.21-.31.35-.31l.73,0c.19,0,.43,0,.53,0s.22,0,.22.11-.08.12-.33.13c-.42,0-.43.14-.42.61L63,78c0,.55,0,.67.42.67.19,0,.27,0,.27.13s-.14.12-.23.12-.6,0-.93,0-.92,0-1.1,0-.16,0-.16-.11.08-.13.34-.15.42-.26.41-.67L62,74.19h0Z" transform="translate(-0.42 -1.42)"/><path class="cls-1" d="M65.15,74.31c0-.36,0-.6-.44-.63-.2,0-.32,0-.32-.15s.11-.12.18-.12l.22,0,1.33,0h.42l1.6,0,.26,0c.11,0,.11.07.11.27v.81s0,.15-.09.15-.11,0-.27-.36-.32-.57-1.57-.57c-.44,0-.48.06-.48.5V75.5c0,.28,0,.35.51.35,1,0,1.06-.2,1.22-.66,0-.11.09-.13.13-.13s.1,0,.1.12-.06,1-.06,1.23,0,.37,0,.44,0,.18-.11.18-.13,0-.17-.21c-.18-.68-.43-.69-1.16-.69-.42,0-.5,0-.5.26v1.52c0,.63.19.72.93.72a1.28,1.28,0,0,0,1.33-.75c.16-.31.18-.34.26-.34s.11.08.11.13-.1.68-.12,1c0,.17-.1.26-.35.26l-1.58,0-1,0h-.11l-.72,0-.27,0c-.07,0-.19,0-.19-.13s.13-.13.32-.15c.44,0,.44-.26.44-.63Z" transform="translate(-0.42 -1.42)"/><path class="cls-1" d="M70,74.29c0-.36-.11-.49-.28-.49s-.31.07-.37.07-.12,0-.12-.1c0-.25,1.48-.37,2.3-.37a3.79,3.79,0,0,1,2.34.57A2.71,2.71,0,0,1,75,76.18a2.79,2.79,0,0,1-3,2.78l-1.62,0-1,0c-.06,0-.18,0-.18-.12s.13-.14.31-.15c.45,0,.45-.27.45-.63ZM71,77.86c0,.57.15.88.83.88A2.39,2.39,0,0,0,74,76.23a2.44,2.44,0,0,0-2.47-2.59c-.53,0-.59.21-.59.71Z" transform="translate(-0.42 -1.42)"/><path class="cls-1" d="M77.48,78c0,.37,0,.61.44.64.19,0,.32,0,.32.15s-.11.12-.19.12-.48,0-1.06,0-.95,0-1,0-.18,0-.18-.13.13-.13.32-.14c.44,0,.44-.27.44-.63V74.32c0-.37,0-.6-.44-.64-.2,0-.32,0-.32-.15s.11-.12.18-.12.5,0,1,0,.92,0,1.05,0,.19,0,.19.13-.13.13-.32.14c-.44,0-.44.27-.44.61Z" transform="translate(-0.42 -1.42)"/><path class="cls-1" d="M84.05,74.49c0,.09,0,.15-.11.15s-.11,0-.21-.16a1.58,1.58,0,0,0-1.46-.89,2.34,2.34,0,0,0-2.12,2.55c0,1.24.72,2.65,2.06,2.65.81,0,1.2-.49,1.57-1.18,0,0,.09-.17.18-.17s.13.08.13.14l-.07.75c0,.13,0,.2-.21.31a3.37,3.37,0,0,1-1.63.36A3,3,0,0,1,79,76.17c0-1.23,1.06-2.81,3.37-2.81a5.86,5.86,0,0,1,1.16.12c.4.07.44.15.48.39Z" transform="translate(-0.42 -1.42)"/><path class="cls-1" d="M86.48,76.89c-.26,0-.26,0-.33.23l-.3.94a2.83,2.83,0,0,0-.08.37c0,.22.22.24.42.25s.34,0,.34.14-.11.12-.31.12l-.87,0-.73,0c-.05,0-.17,0-.17-.13s.12-.13.26-.15.37,0,.54-.35c.28-.55,1.06-2.62,1.64-4.14.33-.86.33-.87.42-.87s.13.06.26.42.19.49.26.66l1.38,3.36c.28.68.37.88.73.93.15,0,.25,0,.25.15S90,79,90,79l-1,0c-.54,0-1,0-1,0s-.2,0-.2-.12.14-.14.32-.16.31-.06.31-.2a.73.73,0,0,0-.06-.26l-.38-1.06c-.1-.27-.13-.27-.36-.27Zm.93-.32c.2,0,.2,0,.2-.06a.43.43,0,0,0-.05-.17l-.62-1.52-.55,1.49a.58.58,0,0,0,0,.17c0,.09.05.09.21.09Z" transform="translate(-0.42 -1.42)"/><path class="cls-1" d="M91.31,74.31c0-.36,0-.6-.45-.63-.18,0-.31,0-.31-.15s.11-.12.19-.12.62,0,1.08,0,.87,0,1,0,.18,0,.18.12-.13.14-.31.15c-.45,0-.47.27-.47.6v3.53c0,.56.16.86.71.86a1.6,1.6,0,0,0,1.53-1c0-.07.07-.11.12-.11s.11.07.11.14-.11.86-.12,1-.06.21-.22.21-.07,0-2.08,0a15.47,15.47,0,0,0-1.58,0c-.06,0-.18,0-.18-.12s.13-.13.31-.15c.45,0,.45-.26.45-.64Z" transform="translate(-0.42 -1.42)"/><path class="cls-1" d="M98.49,74.3c0-.36,0-.6-.43-.63-.2,0-.32,0-.32-.14s0-.12.33-.12l.63,0,1.68,0c1.57,0,1.7,1.08,1.7,1.39a1.32,1.32,0,0,1-1.21,1.31c.11.07.22.13.42.5l.86,1.52c.18.31.3.53.55.57s.36,0,.36.16-.09.11-.15.11l-.82,0-.48,0c-.16,0-.2-.08-.29-.26l-1.07-2c-.2-.38-.24-.42-.64-.42-.15,0-.17.05-.17.2v1.59c0,.37,0,.61.44.64.19,0,.32,0,.32.15s-.11.11-.19.11l-1.06,0-1,0c-.07,0-.19,0-.19-.12s.13-.13.32-.14c.43,0,.43-.26.43-.64Zm.94,1.4c0,.31,0,.33.44.33a1,1,0,0,0,1.19-1.11,1.17,1.17,0,0,0-1.22-1.27c-.41,0-.42.21-.42.56Z" transform="translate(-0.42 -1.42)"/><path class="cls-1" d="M104.17,74.31c0-.36,0-.6-.44-.63-.2,0-.32,0-.32-.15s.11-.12.18-.12l.22,0,1.33,0h.42l1.6,0,.27,0c.11,0,.11.07.11.27v.81s0,.15-.09.15-.11,0-.27-.36-.32-.57-1.57-.57c-.44,0-.48.06-.48.5V75.5c0,.28,0,.35.51.35,1,0,1.06-.19,1.22-.66,0-.11.09-.13.13-.13s.1,0,.1.12-.06,1-.06,1.23,0,.37,0,.44,0,.18-.11.18-.12,0-.17-.21c-.19-.68-.43-.69-1.16-.69-.42,0-.49,0-.49.26v1.52c0,.63.18.72.93.72a1.28,1.28,0,0,0,1.33-.75c.16-.31.18-.34.26-.34s.11.08.11.13-.1.68-.13,1c0,.17-.1.26-.35.26l-1.58,0-1,0h-.11l-.73,0-.27,0c-.07,0-.18,0-.18-.13s.13-.13.32-.15c.44,0,.44-.26.44-.63Z" transform="translate(-0.42 -1.42)"/><path class="cls-1" d="M110,79a2.78,2.78,0,0,1-1.4-.35c-.1-.07-.11-.2-.11-.42,0,0,0-.48,0-.79,0,0,0-.16.11-.16s.11.07.13.15a1.57,1.57,0,0,0,1.4,1.34,1,1,0,0,0,1.05-1c0-.69-.6-1-1.24-1.32s-1.41-.66-1.41-1.6a1.56,1.56,0,0,1,1.74-1.52,3.38,3.38,0,0,1,1.16.2c.11.06.11.14.11.92,0,.2,0,.27-.12.27s-.13-.05-.21-.33a1,1,0,0,0-1-.85.86.86,0,0,0-1,.85c0,.63.51.85,1.22,1.14.5.21,1.42.64,1.42,1.64A1.79,1.79,0,0,1,110,79Z" transform="translate(-0.42 -1.42)"/><path class="cls-1" d="M113.42,74.31c0-.36,0-.6-.44-.63-.2,0-.32,0-.32-.15s.11-.12.18-.12l.22,0,1.33,0h.42l1.6,0,.27,0c.11,0,.11.07.11.27v.81s0,.15-.09.15-.11,0-.27-.36-.32-.57-1.57-.57c-.44,0-.48.06-.48.5v1.28c0,.28,0,.35.51.35,1,0,1.06-.2,1.22-.66,0-.11.09-.13.13-.13s.1,0,.1.12-.06,1-.06,1.23,0,.37,0,.44,0,.18-.11.18-.12,0-.17-.21c-.19-.68-.43-.69-1.16-.69-.42,0-.49,0-.49.26v1.52c0,.63.18.72.93.72a1.28,1.28,0,0,0,1.33-.75c.16-.31.18-.34.26-.34s.11.08.11.13-.1.68-.13,1c0,.17-.1.26-.35.26l-1.58,0-1,0h-.11l-.73,0-.27,0c-.07,0-.18,0-.18-.13s.13-.13.32-.15c.44,0,.44-.26.44-.63Z" transform="translate(-0.42 -1.42)"/><path class="cls-1" d="M119.19,76.89c-.26,0-.26,0-.34.23l-.3.95a2.8,2.8,0,0,0-.08.37c0,.22.22.24.42.25s.34,0,.34.14-.11.12-.31.12-.61,0-.87,0l-.74,0c-.05,0-.17,0-.17-.13s.13-.13.26-.15c.29,0,.37,0,.54-.34.28-.55,1.06-2.62,1.64-4.15.33-.86.33-.87.42-.87s.12.06.26.42.18.49.26.66l1.38,3.36c.28.68.37.88.73.93.15,0,.25,0,.25.15s-.15.11-.2.11l-1,0c-.54,0-1,0-1,0s-.2,0-.2-.12.14-.14.32-.16.31-.06.31-.19a.78.78,0,0,0-.06-.26l-.38-1.06c-.1-.26-.12-.26-.36-.26Zm.93-.32c.2,0,.2,0,.2-.06a.5.5,0,0,0-.05-.17l-.62-1.52-.55,1.49a.54.54,0,0,0,0,.17c0,.09.05.09.21.09Z" transform="translate(-0.42 -1.42)"/><path class="cls-1" d="M124,74.3c0-.36,0-.6-.43-.63-.2,0-.32,0-.32-.14s0-.12.33-.12l.63,0,1.68,0c1.57,0,1.7,1.08,1.7,1.39a1.33,1.33,0,0,1-1.21,1.31c.11.07.22.12.42.49l.86,1.52c.18.31.3.53.55.57s.36,0,.36.16-.09.11-.15.11l-.82,0-.48,0c-.16,0-.2-.08-.29-.26l-1.07-2c-.2-.38-.24-.42-.64-.42-.15,0-.17.05-.17.2v1.59c0,.37,0,.61.44.64.19,0,.32,0,.32.15s-.11.11-.19.11l-1.06,0-1,0c-.07,0-.19,0-.19-.12s.13-.13.32-.14c.43,0,.43-.26.43-.64Zm.94,1.4c0,.31,0,.33.44.33a1,1,0,0,0,1.19-1.1,1.17,1.17,0,0,0-1.22-1.27c-.41,0-.42.21-.42.56Z" transform="translate(-0.42 -1.42)"/><path class="cls-1" d="M134,74.49c0,.09,0,.15-.11.15s-.11,0-.21-.16a1.58,1.58,0,0,0-1.46-.89,2.34,2.34,0,0,0-2.12,2.54c0,1.24.72,2.65,2.06,2.65.81,0,1.2-.5,1.57-1.18,0,0,.09-.17.18-.17s.13.08.13.14l-.07.75c0,.12,0,.2-.21.31a3.37,3.37,0,0,1-1.63.36A3,3,0,0,1,129,76.17c0-1.23,1.06-2.81,3.37-2.81a5.86,5.86,0,0,1,1.16.12c.4.07.44.15.48.39Z" transform="translate(-0.42 -1.42)"/><path class="cls-1" d="M136.48,75.56c0,.27,0,.27.28.27h1.91c.29,0,.32,0,.32-.28V74.31c0-.36,0-.6-.43-.63-.2,0-.32,0-.32-.15s.12-.12.2-.12c.28,0,.55,0,1,0s.73,0,1,0c.07,0,.18,0,.18.12s-.13.13-.31.15c-.44,0-.44.26-.44.62V78c0,.37,0,.61.44.64.19,0,.31,0,.31.15s-.11.12-.18.12-.43,0-1,0-.93,0-1,0-.18,0-.18-.13.13-.13.32-.14c.43,0,.43-.26.43-.62V76.35c0-.22,0-.22-.29-.22h-1.88c-.31,0-.33,0-.33.2V78c0,.37,0,.61.43.64.2,0,.32,0,.32.15s-.11.12-.18.12-.37,0-1,0-.88,0-1,0-.18,0-.18-.13.12-.13.31-.14c.44,0,.44-.26.44-.62V74.31c0-.36,0-.6-.44-.63-.19,0-.31,0-.31-.15s.09-.12.2-.12c.27,0,.59,0,1,0s.78,0,1,0c.07,0,.18,0,.18.12s-.13.13-.32.15c-.43,0-.43.26-.43.62Z" transform="translate(-0.42 -1.42)"/><path class="cls-1" d="M50.79,45c0-.83-.32-1-1-1-.52,0-.65-.08-.65-.25s.08-.21.75-.21c.28,0,.75.07,1.86.07l2.11-.07c.07,0,.26,0,.26.2s-.17.23-.61.27c-.8,0-.83.31-.83,1v.17c0,.17,0,.73,0,1.68,0,.75,0,.8-.48,1a7.26,7.26,0,0,1-3.52.85c-4.65,0-5.73-3.6-5.73-5.21,0-2.44,2-5.39,6.46-5.39a5.46,5.46,0,0,1,2.64.51,5.28,5.28,0,0,1,.35,1.68c0,.21-.1.3-.2.3s-.28-.15-.4-.38a2.86,2.86,0,0,0-2.74-1.68c-2.56,0-4,2.79-4,5,0,2.42,1.53,4.73,4,4.73,1.53,0,1.73-.53,1.73-1.91Z" transform="translate(-0.42 -1.42)"/><path class="cls-1" d="M59.74,44.76c-.5,0-.5,0-.63.43L58.55,47a5.21,5.21,0,0,0-.15.7c0,.41.42.45.8.46s.63.07.63.27-.2.23-.58.23c-.16,0-1.15-.07-1.62-.07-.18,0-1.16.07-1.38.07s-.31,0-.31-.25.23-.25.5-.28c.55,0,.7-.07,1-.65.53-1,2-4.91,3.09-7.78.62-1.61.62-1.63.78-1.63s.23.12.48.8c.16.46.35.93.48,1.24l2.58,6.31c.53,1.28.7,1.64,1.38,1.74.28,0,.46.07.46.28s-.28.22-.38.22l-1.94-.07c-1,0-1.87.07-1.92.07s-.38,0-.38-.23.27-.27.6-.3.58-.12.58-.37a1.46,1.46,0,0,0-.12-.48l-.71-2c-.18-.5-.23-.5-.68-.5Zm1.74-.6c.38,0,.38-.07.38-.12a.86.86,0,0,0-.1-.32l-1.16-2.85-1,2.81a1,1,0,0,0-.07.31c0,.17.1.17.4.17Z" transform="translate(-0.42 -1.42)"/><path class="cls-1" d="M70.4,39.9c0-.68,0-1.13-.81-1.18-.37,0-.6,0-.6-.26s.07-.23.62-.23c.16,0,1,.07,1.18.07.45,0,2.66-.07,3.16-.07,2.93,0,3.18,2,3.18,2.6a2.49,2.49,0,0,1-2.27,2.46c.22.13.42.23.8.93l1.61,2.85c.33.58.57,1,1,1.06s.68.08.68.3-.16.2-.28.2-1.3-.07-1.54-.07-.75.07-.9.07-.37-.15-.55-.5l-2-3.78c-.37-.71-.45-.78-1.2-.78-.28,0-.31.1-.31.38v3c0,.7,0,1.14.83,1.19.37,0,.6,0,.6.28s-.22.22-.35.22c-.31,0-1.93-.07-2-.07-.28,0-1.63.07-1.93.07-.13,0-.35,0-.35-.23s.25-.25.6-.27c.81-.07.81-.5.81-1.19Zm1.78,2.62c0,.58,0,.61.83.61a1.92,1.92,0,0,0,2.24-2.07A2.2,2.2,0,0,0,73,38.69c-.76,0-.78.4-.78,1Z" transform="translate(-0.42 -1.42)"/><path class="cls-1" d="M85.76,48.56c0,.1-.15.31-.28.31s-.2-.08-.32-.35l-3.63-8.68c-.43-1-.58-1.1-1.08-1.15s-.55-.05-.55-.26.15-.22.26-.22c.3,0,1.18.07,2.34.07.93,0,1.44-.07,1.78-.07.15,0,.31.05.31.23s-.15.21-.28.21c-.78.1-1,.12-1,.48a5.55,5.55,0,0,0,.35.88l2.49,6,2.22-5.66a3.14,3.14,0,0,0,.3-1.11c0-.4-.4-.48-.68-.5-.5,0-.71,0-.71-.26s.26-.23.45-.23.88.07,1.41.07,1.23-.07,1.48-.07c.08,0,.3,0,.3.22s-.07.21-.71.31c-.4.05-.58.26-1.08,1.51Z" transform="translate(-0.42 -1.42)"/><path class="cls-1" d="M94.94,44.76c-.5,0-.5,0-.63.43L93.75,47a5.22,5.22,0,0,0-.15.7c0,.41.42.45.8.46s.63.07.63.27-.2.23-.58.23c-.17,0-1.15-.07-1.62-.07-.18,0-1.16.07-1.38.07s-.31,0-.31-.25.23-.25.5-.28c.55,0,.7-.07,1-.65.53-1,2-4.91,3.09-7.78.61-1.61.61-1.63.78-1.63s.23.12.48.8c.17.46.35.93.48,1.24l2.59,6.31c.53,1.28.7,1.64,1.37,1.74.28,0,.47.07.47.28s-.28.22-.38.22l-1.94-.07c-1,0-1.88.07-1.93.07s-.38,0-.38-.23.27-.27.6-.3.58-.12.58-.37a1.45,1.45,0,0,0-.12-.48l-.71-2c-.18-.5-.23-.5-.68-.5Zm1.74-.6c.38,0,.38-.07.38-.12a.93.93,0,0,0-.1-.32L95.8,40.88l-1,2.81a1,1,0,0,0-.07.31c0,.17.1.17.4.17Z" transform="translate(-0.42 -1.42)"/><path class="cls-1" d="M113.54,45.88l-.07-5.11c0-2-.21-2-.88-2-.5,0-.75,0-.75-.26s.3-.23.42-.23,1.11.07,1.33.07,1.49-.07,1.78-.07c.08,0,.3,0,.3.25s-.16.25-.65.28-.86.1-.84,1l0,8.68c0,.17,0,.48-.25.48s-.25,0-.53-.38l-7.07-8.8,0,0,.07,5.71c0,2.41.21,2.57,1,2.64s.75.05.75.27-.26.23-.4.23-.83-.07-1.34-.07c-.85,0-1.59.07-1.89.07-.05,0-.28,0-.28-.22s.07-.22.76-.3.8-.16.8-2.42V40.17c0-1.28-.12-1.44-.86-1.44-.35,0-.62,0-.62-.26s.22-.23.52-.23.93.07,1.46.07.86-.07,1.08-.07.45.35.57.5l5.62,7.19Z" transform="translate(-0.42 -1.42)"/><path class="cls-2" d="M44.31,56.63c0-1,.08-1.36-1.08-1.36-.15,0-.41,0-.41-.22s.11-.23.28-.23c.63,0,1.23.07,1.86.07s1.26-.07,1.89-.07c.15,0,.28,0,.28.23s-.28.22-.43.22c-1.16,0-1.08.32-1.08,1.36v6.8c0,1.06-.07,1.36,1.08,1.38.15,0,.43,0,.43.2s-.13.21-.28.21c-.63,0-1.23-.07-1.86-.07s-1.26.07-1.9.07c-.15,0-.28,0-.28-.21s.26-.2.41-.2c1.16,0,1.08-.33,1.08-1.38Z" transform="translate(-0.42 -1.42)"/><path class="cls-2" d="M59.63,56.65c0-1,.06-1.38-1.1-1.38-.15,0-.42,0-.42-.18a.26.26,0,0,1,.3-.27c.5,0,1,.07,1.46.07s1-.07,1.44-.07a.26.26,0,0,1,.28.27c0,.18-.26.18-.43.18-1.15,0-1.08.35-1.08,1.38v8.43c0,.08,0,.31-.12.31s-.33-.27-.42-.4l-7-9.06v7.5c0,1-.08,1.38,1.08,1.38.15,0,.41,0,.41.17s-.12.25-.28.25c-.5,0-1-.07-1.46-.07s-1,.07-1.44.07c-.17,0-.3-.07-.3-.25s.28-.17.43-.17c1.16,0,1.08-.35,1.08-1.38V56.65c0-1,.08-1.38-1.08-1.38-.15,0-.42,0-.42-.18s.22-.27.4-.27h2.06c.35.08.48.31.68.58L59.63,63Z" transform="translate(-0.42 -1.42)"/><path class="cls-2" d="M67.59,60c-1.21-.53-2.41-1.21-2.41-2.69a3,3,0,0,1,3.2-2.81,6.79,6.79,0,0,1,2.22.37c.32.12.28.31.3.62s.05.86.07,1.29a.18.18,0,0,1-.18.2c-.18,0-.22-.27-.26-.38-.37-1.15-.86-1.76-2.16-1.76-1.1,0-2.14.56-2.14,1.78,0,1.43,1.83,2,2.9,2.47a5.41,5.41,0,0,1,1.64,1,3,3,0,0,1,.8,2,3.07,3.07,0,0,1-1.16,2.36,4.11,4.11,0,0,1-2.65.86,5.26,5.26,0,0,1-2.51-.65c-.28-.18-.23-.63-.23-.93a10.9,10.9,0,0,1,.05-1.28c0-.13.07-.33.25-.33s.21.41.23.55A2.3,2.3,0,0,0,68,65a2.33,2.33,0,0,0,2.47-2.16c0-1.33-.9-2-2-2.47Z" transform="translate(-0.42 -1.42)"/><path class="cls-2" d="M80.24,63.43c0,1.06-.07,1.38,1.08,1.38.15,0,.43,0,.43.2s-.13.21-.28.21c-.63,0-1.23-.07-1.86-.07s-1.26.07-1.89.07c-.15,0-.28,0-.28-.21s.26-.2.42-.2c1.16,0,1.08-.33,1.08-1.38V55.75c0-.6-.21-.48-.73-.48-1.51,0-2.13.15-2.92,1.48-.07.12-.2.4-.37.4s-.16-.08-.16-.2a1.39,1.39,0,0,1,.1-.4l.65-2.16c0-.12.07-.23.21-.23s.15.08.15.18,0,.25.13.35.56.13.83.13h6c.43,0,.85.08,1-.38.05-.13.08-.28.25-.28s.15.48.15.6l-.1,2c0,.13,0,.28-.2.28s-.15-.13-.18-.23a3.73,3.73,0,0,0-.48-1.13,1.54,1.54,0,0,0-1.34-.43H81c-.75,0-.75,0-.75.81Z" transform="translate(-0.42 -1.42)"/><path class="cls-2" d="M88.45,56.63c0-1,.08-1.36-1.08-1.36-.15,0-.42,0-.42-.22s.12-.23.28-.23c.63,0,1.23.07,1.86.07s1.26-.07,1.89-.07c.15,0,.28,0,.28.23s-.28.22-.43.22c-1.16,0-1.08.32-1.08,1.36v6.8c0,1.06-.06,1.36,1.08,1.38.15,0,.43,0,.43.2s-.13.21-.28.21c-.63,0-1.23-.07-1.86-.07s-1.26.07-1.89.07c-.15,0-.28,0-.28-.21s.27-.2.42-.2c1.16,0,1.08-.33,1.08-1.38Z" transform="translate(-0.42 -1.42)"/><path class="cls-2" d="M99.49,63.43c0,1.06-.07,1.38,1.08,1.38.15,0,.43,0,.43.2s-.13.21-.28.21c-.63,0-1.23-.07-1.86-.07s-1.26.07-1.89.07c-.15,0-.28,0-.28-.21s.26-.2.42-.2c1.16,0,1.08-.33,1.08-1.38V55.75c0-.6-.21-.48-.73-.48-1.51,0-2.12.15-2.92,1.48-.07.12-.2.4-.37.4s-.17-.08-.17-.2a1.49,1.49,0,0,1,.1-.4l.65-2.16c0-.12.07-.23.22-.23s.15.08.15.18,0,.25.13.35.56.13.83.13h6c.43,0,.85.08,1-.38.05-.13.08-.28.25-.28s.15.48.15.6l-.1,2c0,.13,0,.28-.2.28s-.15-.13-.18-.23a3.72,3.72,0,0,0-.48-1.13,1.55,1.55,0,0,0-1.35-.43h-1c-.75,0-.75,0-.75.81Z" transform="translate(-0.42 -1.42)"/><path class="cls-2" d="M115.35,57.29a4.51,4.51,0,0,0-.18-1.64c-.2-.37-.62-.38-1-.38-.15,0-.45,0-.45-.22s.18-.23.35-.23c.5,0,1,.07,1.49.07s.86-.07,1.29-.07c.13,0,.35,0,.35.21s-.38.23-.53.23c-.95,0-.83.63-.87,1.4v5.18a2.94,2.94,0,0,1-.91,2.64,4.76,4.76,0,0,1-3.12.88,5.54,5.54,0,0,1-3.09-.76c-1-.7-1-1.66-1-2.76V56.63c0-1,.08-1.36-1.08-1.36-.15,0-.42,0-.42-.22s.12-.23.28-.23c.63,0,1.23.07,1.86.07s1.26-.07,1.89-.07c.15,0,.28,0,.28.23s-.28.22-.43.22c-1.16,0-1.08.32-1.08,1.36v4.68a5.7,5.7,0,0,0,.35,2.55,3.17,3.17,0,0,0,2.69,1.08,3.8,3.8,0,0,0,2.69-.9,2.82,2.82,0,0,0,.6-2.21Z" transform="translate(-0.42 -1.42)"/><path class="cls-2" d="M125.38,63.43c0,1.06-.07,1.38,1.08,1.38.15,0,.43,0,.43.2s-.13.21-.28.21c-.63,0-1.23-.07-1.86-.07s-1.26.07-1.89.07c-.15,0-.28,0-.28-.21s.27-.2.42-.2c1.16,0,1.08-.33,1.08-1.38V55.75c0-.6-.21-.48-.73-.48-1.51,0-2.12.15-2.92,1.48-.06.12-.2.4-.37.4s-.16-.08-.16-.2a1.39,1.39,0,0,1,.1-.4l.65-2.16c0-.12.07-.23.21-.23s.15.08.15.18,0,.25.13.35a1.29,1.29,0,0,0,.83.13h6c.43,0,.85.08,1-.38.05-.13.08-.28.25-.28s.15.48.15.6l-.1,2c0,.13,0,.28-.2.28s-.15-.13-.18-.23a3.73,3.73,0,0,0-.48-1.13,1.54,1.54,0,0,0-1.34-.43h-1c-.75,0-.75,0-.75.81Z" transform="translate(-0.42 -1.42)"/><path class="cls-2" d="M135.23,58.54c0,.78.15.78.83.78a17.4,17.4,0,0,0,2-.07c.41,0,.5-.66.58-1.14,0-.1.07-.28.21-.28s.18,0,.18.17c0,.47-.05,1-.08,1.43s.07,1,.08,1.56c0,.26-.1.3-.18.3s-.2-.18-.21-.28c-.08-.48-.21-1-.58-1.06a9.75,9.75,0,0,0-2-.15c-.66,0-.83,0-.83.56v2.89c0,1.53.73,1.54,2,1.54s2.34,0,2.9-1.49c.05-.11.16-.56.37-.56s.16.07.16.18a1.65,1.65,0,0,1-.07.4l-.25,1.76c0,.12-.05.1-.18.1h-6.49c-.17,0-.33,0-.52,0s-.35,0-.52,0-.28-.07-.28-.25.26-.2.43-.2c1.15,0,1.08-.33,1.08-1.39V56.63c0-1,.07-1.36-1.08-1.36-.17,0-.43,0-.43-.2a.25.25,0,0,1,.28-.25c1,0,2.09.07,3.12.07,1.43,0,2.82-.07,4.23-.07.31,0,.23.4.23.61v1.43c0,.1,0,.35-.15.35s-.22-.21-.26-.33l-.25-.47a1.55,1.55,0,0,0-1-1,6.74,6.74,0,0,0-1.83-.17,5.42,5.42,0,0,0-1.26.1c-.31.12-.27.48-.27.77Z" transform="translate(-0.42 -1.42)"/><path class="cls-1" d="M28.74,77.83c-.27.33.31.67.11,1a.31.31,0,0,0-.45,0c-4-2.72-7.51-6.9-11.76-9.22-3.42-2.85-5.2-6.59-8.21-9.72a33.88,33.88,0,0,1-4-7.33c.09-.93-.62-1.57-.94-2.27A17.54,17.54,0,0,1,2,44.81l-.32-.11c0-.63-.58-1.3-.06-1.89-.22-.61.35-.55.55-.93a8.25,8.25,0,0,1,3.48-.38c-.3-.29-.9-.62-.66-1.1.12-1.09,1.15-1.8,1.7-2.7-.29-.27.08-.47.28-.55.63-.42,1.3-.06,1.88.22.08.64.81,1,.76,1.72.72.78.46,1.69.45,2.64a4.17,4.17,0,0,1-1.83.55l0,.06a12.16,12.16,0,0,0,7,1.76,66.61,66.61,0,0,0,8.28-1.82c1.4-.2,3-.16,4.18-1.1.37,0,.6-.35.89-.55.09.74-.49,1.33-.72,2C25.17,45,22.49,47.24,19,47.85c-1.42.17-2.94.82-4.31.5-.54.15-1-.32-1.53-.22L13.06,48c-1.11-.25-2.58.16-3.2-1l-.23-.22L9.47,47c0,1.06-.22,2,.39,2.93a12.33,12.33,0,0,1,.43,1.55,4.67,4.67,0,0,1,.4,1,33.29,33.29,0,0,1,2.8,6.35c1.62,2,3.39,3.72,4.85,5.73,1.89,3.4,6,4.37,8.11,7.62l1.28,1.49c-.07,0-.08,0-.11.06,0,.22.25,0,.33.17,0,.55.77,1,.89,1.59l.34.39c-.21.1,0,.33,0,.5.08.58-.13,1.29.11,1.77A1.1,1.1,0,0,0,28.74,77.83Z" transform="translate(-0.42 -1.42)"/><path class="cls-1" d="M18.25,33.78c-1.19,0-2.64-.4-3.65.39a13,13,0,0,0-4.69.38,5.29,5.29,0,0,0-2.65,1.17c-.57.14-.64.72-.94,1.16.09.13.05.32.06.49a.09.09,0,0,0-.1.06c-.2-.18-.38-.35-.67-.28-.14.2-.4,0-.55-.06-.8-.55-1.82-.54-2.53-1.32.13-1.93,2.36-2.55,3.8-3.31,2.69-1,5.94-.74,8.79-.28a14,14,0,0,1,3.31,1.32A.24.24,0,0,1,18.25,33.78Z" transform="translate(-0.42 -1.42)"/><path class="cls-1" d="M6.88,60.61c-1,1.21-1.53,2.68-2.53,3.86,0,.43-.6.32-.83.66-.45.25-.7.92-1.23.66-.29-.2-.69,0-.87,0,0-.39.51-.91-.06-1.17-.29.12-.41.5-.72.72,0-.22.18-.29.07-.44l-.28.27c1.17-2.62,2-5.39,4-7.67.5-.22.87-.76,1.48-.72a12.59,12.59,0,0,1,1.61,2.48C7.61,59.88,7.14,60.13,6.88,60.61Z" transform="translate(-0.42 -1.42)"/><path class="cls-2" d="M34.32,35.88a11.7,11.7,0,0,0,5.6-.61c6.2-2.19,6.88-10.93,6.88-10.93.49-3.81-.19-7.62-.49-11.25l-.12-3.53a9,9,0,0,1,3.48-8.12c-.22-.08-.32.25-.49.12a14.24,14.24,0,0,0-4.92,5.52,13.36,13.36,0,0,0-1.42,3.63c-.65,4.18.61,8.2.77,12.25,0,3.88.22,8.78-3.36,11.44-2.28,1.28-5-.84-5.58-1.25-.41-.29-1-.88-2.59-2.17a43.72,43.72,0,0,0-6.68-4.37c-3.42-1.86-6.08,1.66-6.08,1.66s-.07.07.11.11c1.07.23,2.24-.13,3.34.72,0,0,4.52,3.56,5.76,4.48A10,10,0,0,0,34.32,35.88Z" transform="translate(-0.42 -1.42)"/><path class="cls-1" d="M30.38,35a26.27,26.27,0,0,1-1,3.86,4.81,4.81,0,0,0-.72,1.32c.08,0,.17,0,.21-.11.36.2.43-.35.79-.17v.17h.44c.14.22.42,0,.49.22.27-.06.52-.54.83-.22,1.81-.61,2.51-3,2.71-4.2h0a10.14,10.14,0,0,1-3.7-1Z" transform="translate(-0.42 -1.42)"/><path class="cls-1" d="M64,19.26c-4.61-.25-11.61-6.9-18.1-9.77a14.5,14.5,0,0,0-6.21-1.28,7.19,7.19,0,0,0-5.84,3.44,18.22,18.22,0,0,0-2.17,6.72c-.33,3.79-.49,7.68-.72,11.42l0,.32c.37.28.74.57,1.1.86,1.52,1.27,2.15,1.86,2.56,2.16v0a63.11,63.11,0,0,0,0-14.17c-.28-2.09-.66-4.75.25-6.75,1.28-2.16,3.62-2.5,5.84-2.27a4.93,4.93,0,0,1,2.26,1L46.17,13s7.33,5.54,12.18,7c3.66,1.18,6.34,1.54,8.55-1.15C65.93,18.58,65.24,19.29,64,19.26Z" transform="translate(-0.42 -1.42)"/></svg>