<?xml version="1.0" standalone="yes"?><svg fill="orange" xmlns="http://www.w3.org/2000/svg" xmlns:xlink="http://www.w3.org/1999/xlink" version="1.1" x="0px" y="0px" viewBox="0 0 100 125" style="enable-background:new 0 0 100 100;zoom: 1;" xml:space="preserve"><style type="text/css">
        .st0{fill:none;stroke:#000000;stroke-width:2;stroke-linecap:round;stroke-linejoin:round;stroke-miterlimit:10;}
</style><path d="M36.806,61.605c-3.781,0-6.857,3.528-6.857,7.865c0,4.337,3.076,7.866,6.857,7.866s6.857-3.528,6.857-7.866 C43.663,65.134,40.587,61.605,36.806,61.605z M36.806,75.336c-2.679,0-4.857-2.631-4.857-5.866c0-3.234,2.179-5.865,4.857-5.865 s4.857,2.631,4.857,5.865C41.663,72.705,39.484,75.336,36.806,75.336z"></path><path d="M63.194,61.605c-3.781,0-6.857,3.528-6.857,7.865c0,4.337,3.076,7.866,6.857,7.866s6.857-3.528,6.857-7.866 C70.052,65.134,66.976,61.605,63.194,61.605z M63.194,75.336c-2.679,0-4.857-2.631-4.857-5.866c0-3.234,2.179-5.865,4.857-5.865 s4.857,2.631,4.857,5.865C68.052,72.705,65.873,75.336,63.194,75.336z"></path><path d="M35.515,43.246c0.553,0,1-0.448,1-1c0-1.955,1.609-3.545,3.588-3.545s3.588,1.59,3.588,3.545c0,0.552,0.447,1,1,1 s1-0.448,1-1c0-3.058-2.507-5.545-5.588-5.545s-5.588,2.487-5.588,5.545C34.515,42.798,34.962,43.246,35.515,43.246z"></path><path d="M55.31,43.246c0.553,0,1-0.448,1-1c0-1.955,1.609-3.545,3.588-3.545s3.588,1.59,3.588,3.545c0,0.552,0.447,1,1,1 s1-0.448,1-1c0-3.058-2.507-5.545-5.588-5.545s-5.588,2.487-5.588,5.545C54.31,42.798,54.757,43.246,55.31,43.246z"></path><path d="M11,90h78c0.553,0,1-0.448,1-1s-0.447-1-1-1h-3.262V63.328c0-4.155-2.058-7.831-5.201-10.088 c0.002-0.028,0.016-0.052,0.016-0.081V34.296c0-5.837-4.692-10.59-10.502-10.707v-7.746c0-3.222-2.621-5.843-5.843-5.843 s-5.843,2.621-5.843,5.843v7.735H41.634v-7.735c0-3.222-2.621-5.843-5.843-5.843s-5.843,2.621-5.843,5.843v7.746 c-5.81,0.117-10.502,4.87-10.502,10.707v18.863c0,0.029,0.014,0.053,0.016,0.081c-3.143,2.256-5.201,5.932-5.201,10.088V88H11 c-0.553,0-1,0.448-1,1S10.447,90,11,90z M60.366,15.843c0-2.119,1.724-3.843,3.843-3.843s3.843,1.724,3.843,3.843v7.735h-7.686 V15.843z M35.791,12c2.119,0,3.843,1.724,3.843,3.843v7.735h-7.686v-7.735C31.948,13.724,33.672,12,35.791,12z M21.446,34.296 c0-4.807,3.911-8.718,8.718-8.718h39.672c4.807,0,8.718,3.911,8.718,8.718V52.08c-1.594-0.746-3.365-1.174-5.238-1.174H26.685 c-1.873,0-3.644,0.429-5.238,1.174V34.296z M16.262,63.328c0-5.747,4.676-10.422,10.423-10.422h46.631 c5.747,0,10.423,4.675,10.423,10.422V88H16.262V63.328z"></path></svg>